<?xml version="1.0" encoding="UTF-8" standalone="no"?>
<!DOCTYPE svg PUBLIC "-//W3C//DTD SVG 1.1//EN" "http://www.w3.org/Graphics/SVG/1.1/DTD/svg11.dtd">
<svg width="100%" height="100%" viewBox="0 0 114 115" version="1.1" xmlns="http://www.w3.org/2000/svg" xmlns:xlink="http://www.w3.org/1999/xlink" xml:space="preserve" xmlns:serif="http://www.serif.com/" style="fill-rule:evenodd;clip-rule:evenodd;stroke-linejoin:round;stroke-miterlimit:2;">
    <g transform="matrix(1,0,0,1,-2370.174533,-61.25635)">
        <g transform="matrix(0.602114,0,0,0.602114,974.217896,61.25635)">
            <g transform="matrix(4.166667,0,0,4.166667,-176.41406,-980.465193)">
                <path d="M642.209,274.574C641.504,279.58 638.715,281.545 634.353,280.839C624.333,279.217 614.329,281.558 604.24,280.546C597.878,279.907 598.715,275.445 598.902,272.544C599.467,263.771 599.402,255.002 599.836,246.262C599.982,243.324 598.672,239.763 600.937,236.897C601.406,236.303 601.787,234.796 602.448,235.491C606.116,239.347 610.5,235.738 614.842,236.96C615.847,237.823 615.85,238.666 615.357,239.9C613.08,241.737 610.675,241.572 608.399,241.409C605.232,241.183 604.393,242.572 604.434,245.5C604.555,254.134 604.467,262.771 604.476,271.406C604.479,273.698 604.964,274.708 607.517,275.442C613.95,277.29 620.351,276.447 626.776,276.16C628.755,276.071 630.781,275.302 632.708,275.78C636.132,276.631 637.6,275.123 638.316,271.652C641.378,270.189 641.913,272.189 642.209,274.574Z" style="fill:rgb(248,31,100);fill-rule:nonzero;"/>
            </g>
            <g transform="matrix(4.166667,0,0,4.166667,-176.41406,-980.465193)">
                <path d="M642.322,274.855C642.031,273.218 640.202,272.739 639.408,271.21C637.315,269.567 637.648,267.461 637.607,265.536C637.509,260.915 637.419,256.285 637.64,251.672C637.755,249.265 637.184,247.159 636.206,244.726C636.29,243.408 637.149,243.148 637.493,242.622C635.39,242.552 634.153,242.137 635.655,239.759C636.617,239.073 637.394,238.667 637.712,237.413C638.912,236.992 639.864,235.076 641.14,237.05C644.102,241.633 644.846,246.689 643.453,251.739C641.452,258.997 641.717,266.077 643.564,273.23C643.781,274.068 643.19,274.39 642.322,274.855Z" style="fill:rgb(246,36,102);fill-rule:nonzero;"/>
            </g>
            <g transform="matrix(4.166667,0,0,4.166667,-176.41406,-980.465193)">
                <path d="M617.027,237.229C622.99,236.973 629.171,235.313 635.787,236.948C636.319,238.648 635.034,239.393 633.852,240.609C630.863,241.646 628.196,241.52 625.158,240.961C622.87,238.405 619.72,238.725 617.027,237.229Z" style="fill:rgb(246,36,102);fill-rule:nonzero;"/>
            </g>
            <g transform="matrix(4.166667,0,0,4.166667,-176.41406,-980.465193)">
                <path d="M616.548,236.922C619.352,237.495 622.414,236.227 624.235,239.357C621.527,242.333 618.62,241.88 615.362,239.943C615.119,238.874 615.134,238.255 615.233,237.335C615.635,236.92 615.963,236.869 616.548,236.922Z" style="fill:rgb(152,17,55);fill-rule:nonzero;"/>
            </g>
            <g transform="matrix(4.166667,0,0,4.166667,-176.41406,-980.465193)">
                <path d="M634.234,240.017C633.997,238.474 634.933,238.029 635.988,237.288C636.559,237.047 636.919,237.026 637.546,237.052C638.373,237.783 639.705,238.036 639.43,239.163C639.04,240.755 637.622,239.859 636.287,240.071C635.47,240.409 634.977,240.488 634.234,240.017Z" style="fill:rgb(152,17,55);fill-rule:nonzero;"/>
            </g>
            <g transform="matrix(4.166667,0,0,4.166667,-176.41406,-980.465193)">
                <path d="M633.572,239.768C634.441,239.795 634.862,239.898 635.605,240.054C635.631,240.636 634.96,241.34 635.109,241.666C635.553,242.628 636.389,242.157 637,241.72C637.974,241.024 637.89,241.886 638.056,242.668C634.824,245.444 639.286,246.551 639.115,248.881C638.597,255.907 639.024,263.002 639.128,270.537C639.029,271.989 638.645,273.009 638.783,273.952C639.264,277.235 637.842,277.681 634.839,277.584C627.405,277.344 619.95,277.455 612.514,277.728C609.802,277.828 607.585,275.709 604.626,276.695C603.375,277.112 603.02,274.971 603.023,273.597C603.043,263.449 603.1,253.302 603.044,243.155C603.032,240.849 603.814,239.819 606.203,239.886C608.86,239.96 611.523,239.789 614.644,239.609C617.81,239.584 620.517,239.675 623.688,239.699C627.144,239.704 630.134,239.775 633.572,239.768Z" style="fill:rgb(251,235,242);fill-rule:nonzero;"/>
            </g>
            <g transform="matrix(4.166667,0,0,4.166667,-176.41406,-980.465193)">
                <path d="M641.36,248.181C642.263,249.65 642.184,251.363 641.582,253.265C640.703,251.586 641.095,249.993 641.36,248.181Z" style="fill:rgb(248,122,170);fill-rule:nonzero;"/>
            </g>
            <g transform="matrix(4.166667,0,0,4.166667,-176.41406,-980.465193)">
                <path d="M637.978,243.015C638.104,243.072 638.362,243.086 638.377,243.153C638.475,243.603 638.343,243.668 638.041,243.144C638.034,242.957 637.998,242.997 637.978,243.015Z" style="fill:rgb(251,235,242);fill-rule:nonzero;"/>
            </g>
            <g transform="matrix(4.166667,0,0,4.166667,-176.41406,-980.465193)">
                <path d="M622.994,267.104C622.951,269.544 622.098,269.95 620.639,268.539C618.192,266.171 616.297,263.178 612.016,263.729C610.356,263.942 610.59,261.705 610.734,260.531C610.979,258.536 609.352,255.019 611.707,254.805C616.514,254.368 618.745,250.449 622.994,247.96C622.994,254.655 622.994,260.678 622.994,267.104Z" style="fill:rgb(33,23,27);fill-rule:nonzero;"/>
            </g>
            <g transform="matrix(4.166667,0,0,4.166667,-176.41406,-980.465193)">
                <path d="M629.204,251.376C631.568,253.933 631.81,257.767 631.561,261.347C629.4,261.97 630.28,259.439 630.308,258.327C630.359,256.259 629.419,254.639 628.838,252.605C628.814,252.52 628.055,251.615 628.054,251.606C627.988,250.99 628.79,251.692 629.204,251.376Z" style="fill:rgb(116,116,116);fill-rule:nonzero;"/>
            </g>
            <g transform="matrix(4.166667,0,0,4.166667,-176.41406,-980.465193)">
                <path d="M630.312,258.379C630.733,258.833 631.057,259.688 631.598,260.719C631.514,261.909 630.446,264.132 629.916,265.376C629.446,265.624 629.187,265.467 628.946,265.123C629.017,264.246 629.377,263.489 629.624,262.465C629.943,261.14 630.166,259.536 630.312,258.379Z" style="fill:rgb(116,116,116);fill-rule:nonzero;"/>
            </g>
            <g transform="matrix(4.166667,0,0,4.166667,-176.41406,-980.465193)">
                <path d="M626.371,263.075C626.681,262.211 627.135,261.655 627.04,258.448C626.931,254.711 625.668,255.242 625.728,254.161C625.822,254.304 626.748,253.754 626.83,253.918C627.266,254.783 628.029,256.76 628.014,258.79C628.001,260.645 627.728,262.803 626.95,263.683C626.474,264.221 626.555,263.406 626.371,263.075Z" style="fill:rgb(136,136,137);fill-rule:nonzero;"/>
            </g>
            <g transform="matrix(4.166667,0,0,4.166667,-176.41406,-980.465193)">
                <path d="M634.569,274.318C634.64,275.485 634.138,276.103 633.131,275.763C632.831,275.661 632.712,275.024 632.51,274.632C633.112,274.453 633.713,274.274 634.569,274.318Z" style="fill:rgb(247,100,152);fill-rule:nonzero;"/>
            </g>
            <g transform="matrix(4.166667,0,0,4.166667,-176.41406,-980.465193)">
                <path d="M606.917,272.48C608.069,273.211 607.401,273.759 606.873,274.275C606.777,274.369 606.418,274.193 606.181,274.142C606.335,273.604 606.489,273.066 606.917,272.48Z" style="fill:rgb(248,122,170);fill-rule:nonzero;"/>
            </g>
            <g transform="matrix(4.166667,0,0,4.166667,-176.41406,-980.465193)">
                <path d="M626.964,262.935C627.058,263.694 626.85,264.253 626.082,264.313C625.895,264.327 625.48,263.879 625.51,263.822C625.709,263.442 626.001,263.11 626.533,262.733C626.803,262.704 626.902,262.864 626.964,262.935Z" style="fill:rgb(136,136,137);fill-rule:nonzero;"/>
            </g>
            <g transform="matrix(4.166667,0,0,4.166667,-176.41406,-980.465193)">
                <path d="M630.271,264.23C629.968,265.314 629.538,266.963 628.449,266.418C627.465,265.925 628.948,264.907 629.466,263.9C629.729,263.726 630.089,264.062 630.271,264.23Z" style="fill:rgb(116,116,116);fill-rule:nonzero;"/>
            </g>
            <g transform="matrix(4.166667,0,0,4.166667,-176.41406,-980.465193)">
                <path d="M605.565,241.48C606.137,241.498 606.521,241.682 606.803,241.966C606.865,242.028 606.609,242.631 606.43,242.67C605.682,242.835 605.273,242.486 605.565,241.48Z" style="fill:rgb(248,122,170);fill-rule:nonzero;"/>
            </g>
            <g transform="matrix(4.166667,0,0,4.166667,-176.41406,-980.465193)">
                <path d="M625.44,254.216C625.835,253.375 626.354,253.145 626.808,253.887C626.998,254.197 627.066,254.727 626.874,254.955C626.707,255.152 626.66,255.115 626.524,255.119C626.162,255.132 625.78,254.707 625.44,254.216Z" style="fill:rgb(136,136,137);fill-rule:nonzero;"/>
            </g>
            <g transform="matrix(4.166667,0,0,4.166667,-176.41406,-980.465193)">
                <path d="M628.946,252.645C628.372,251.899 627.265,251.278 627.693,250.469C628.097,249.706 628.692,250.717 629.333,251.534C629.4,251.977 629.304,252.266 628.946,252.645Z" style="fill:rgb(116,116,116);fill-rule:nonzero;"/>
            </g>
            <g transform="matrix(4.166667,0,0,4.166667,-176.41406,-980.465193)">
                <path d="M620.908,259.04C620.747,260.892 621.341,262.45 619.861,264.16C618.473,261.04 613.265,263.271 613.031,259.425C612.755,254.89 618.918,257.79 619.578,253.421C621.233,255.672 620.69,257.208 620.908,259.04Z" style="fill:rgb(228,39,98);fill-rule:nonzero;"/>
            </g>
        </g>
    </g>
</svg>
